<svg width="21" height="21" viewBox="0 0 21 21" fill="none" xmlns="http://www.w3.org/2000/svg">
<path d="M18.3015 5.73453C18.3015 5.81787 18.2851 5.90038 18.2532 5.97736C18.2213 6.05433 18.1745 6.12427 18.1156 6.18315C18.0566 6.24204 17.9866 6.28873 17.9096 6.32054C17.8326 6.35236 17.75 6.36868 17.6667 6.36857H15.1322C14.964 6.36857 14.8027 6.30177 14.6838 6.18287C14.5649 6.06396 14.4981 5.90269 14.4981 5.73453V3.2C14.4981 2.84946 14.7816 2.56596 15.1322 2.56596H17.6667C18.0172 2.56596 18.3007 2.84946 18.3007 3.2L18.3015 5.73453ZM18.3015 17.1416C18.3015 17.5858 18.1117 17.7756 17.6667 17.7756H3.72593C3.2817 17.7756 3.0919 17.5858 3.0919 17.1416V8.26988L4.67093 8.61396C4.4976 9.17733 4.40966 9.76349 4.41005 10.3529C4.41005 13.7226 7.23213 16.4591 10.71 16.4591C14.1912 16.4591 17.0117 13.7242 17.0117 10.3529C17.0117 9.74715 16.9204 9.16561 16.7508 8.61396L18.2999 8.26988V17.1416H18.3015ZM10.7109 6.18846C12.9595 6.18846 14.7816 7.95488 14.7816 10.1332C14.7816 12.3116 12.9595 14.078 10.7109 14.078C8.46305 14.078 6.64009 12.31 6.64009 10.1332C6.64009 7.95326 8.46305 6.18846 10.7109 6.18846ZM18.3007 0.0322266H3.0927C1.65986 0.0322266 0.556549 1.13553 0.556549 2.56757V17.7756C0.556549 19.2068 1.65986 20.3101 3.0919 20.3101H18.2999C19.7312 20.3101 20.8345 19.2068 20.8345 17.7756V2.56677C20.8361 1.13473 19.7312 0.0322266 18.3015 0.0322266H18.3007Z" fill="white"/>
</svg>
